<svg width="40" height="40" viewBox="0 0 40 40" fill="none" xmlns="http://www.w3.org/2000/svg">
<g clip-path="url(#clip0_243_131)">
<path d="M0 30.7812V9.21875C0.0493122 8.93984 0.0962762 8.65937 0.148719 8.38125C0.839872 4.70937 2.91959 2.13828 6.36205 0.725C7.26063 0.353125 8.26018 0.234375 9.21825 0H30.7794C30.9054 0.025 31.0307 0.0585938 31.1583 0.078125C32.8427 0.285938 34.3933 0.859375 35.7615 1.86172C38.5911 3.93984 39.993 6.75547 39.9961 10.2617C40.0013 16.7039 39.9995 23.1466 39.9906 29.5898C40.0002 30.2661 39.9499 30.9419 39.8403 31.6094C39.168 35.3047 37.0679 37.882 33.6004 39.293C32.7112 39.6547 31.7218 39.7734 30.7825 40.0039H9.21825C8.93803 39.9547 8.65703 39.9078 8.37759 39.8547C4.70579 39.1617 2.13608 37.0813 0.72168 33.6383C0.354578 32.7344 0.233254 31.7352 0 30.7812ZM36.6405 20H36.6554C36.6554 16.7453 36.6499 13.4906 36.6593 10.2344C36.6593 9.19141 36.5215 8.17813 36.0566 7.24063C34.7948 4.7 32.7355 3.35938 29.8902 3.34688C23.2902 3.32344 16.6902 3.3375 10.0871 3.34688C9.69799 3.35024 9.30961 3.38052 8.92472 3.4375C5.89554 3.86406 3.38767 6.60391 3.36732 9.67188C3.3227 16.4805 3.34853 23.2898 3.34618 30.0984C3.33465 31.0132 3.53587 31.9182 3.93402 32.7422C5.213 35.3344 7.31073 36.657 10.2053 36.6609C16.728 36.6703 23.2508 36.6703 29.7736 36.6609C30.2149 36.6577 30.6556 36.6249 31.0925 36.5625C34.063 36.1555 36.5896 33.3852 36.6303 30.3906C36.6773 26.9273 36.6405 23.4641 36.6405 20Z" fill="white"/>
<path d="M20.0011 10C25.5147 10 30.0201 14.5234 29.995 20.0219C29.97 25.5203 25.4865 30.0039 19.9933 30C14.4805 29.9953 9.97428 25.4758 10.0001 19.9773C10.0259 14.4641 14.5063 10 20.0011 10ZM19.9768 26.6563C23.6494 26.675 26.6246 23.7227 26.6543 20.0281C26.6605 19.1551 26.4942 18.2895 26.1648 17.4808C25.8355 16.672 25.3496 15.936 24.735 15.3149C24.1204 14.6937 23.3891 14.1996 22.583 13.8609C21.7769 13.5221 20.9117 13.3453 20.0371 13.3406C16.3582 13.3039 13.3502 16.2883 13.3392 19.9875C13.3353 20.8609 13.5041 21.7264 13.8358 22.5346C14.1675 23.3428 14.6557 24.0778 15.2724 24.6974C15.8891 25.317 16.6222 25.8091 17.4298 26.1455C18.2373 26.4819 19.1034 26.656 19.9784 26.6578L19.9768 26.6563Z" fill="white"/>
<path d="M30.8336 11.6539C30.1712 11.6539 29.5359 11.3913 29.0675 10.9237C28.5991 10.4562 28.3359 9.82211 28.3359 9.16094C28.3359 8.49976 28.5991 7.86566 29.0675 7.39814C29.5359 6.93062 30.1712 6.66797 30.8336 6.66797C32.2019 6.66797 33.3572 7.83047 33.3345 9.18516C33.3262 9.84209 33.0593 10.4694 32.5913 10.9314C32.1233 11.3934 31.4919 11.6529 30.8336 11.6539V11.6539Z" fill="white"/>
</g>
<defs>
<clipPath id="clip0_243_131">
<rect width="40" height="40" fill="white"/>
</clipPath>
</defs>
</svg>
