<svg width="50" height="50" viewBox="0 0 50 50" fill="none" xmlns="http://www.w3.org/2000/svg">
<path d="M24.9987 24.4785C26.0056 24.4785 26.865 24.1226 27.5768 23.4108C28.2886 22.699 28.6445 21.8396 28.6445 20.8327C28.6445 19.8257 28.2886 18.9664 27.5768 18.2546C26.865 17.5428 26.0056 17.1868 24.9987 17.1868C23.9918 17.1868 23.1324 17.5428 22.4206 18.2546C21.7088 18.9664 21.3529 19.8257 21.3529 20.8327C21.3529 21.8396 21.7088 22.699 22.4206 23.4108C23.1324 24.1226 23.9918 24.4785 24.9987 24.4785ZM24.9987 41.7181C29.6168 37.5167 33.0282 33.7059 35.2331 30.2858C37.4379 26.8657 38.5404 23.8535 38.5404 21.2493C38.5404 17.1521 37.2296 13.8014 34.6081 11.1973C31.9865 8.5931 28.7834 7.29102 24.9987 7.29102C21.214 7.29102 18.0108 8.5931 15.3893 11.1973C12.7678 13.8014 11.457 17.1521 11.457 21.2493C11.457 23.8535 12.5855 26.8657 14.8424 30.2858C17.0994 33.7059 20.4848 37.5167 24.9987 41.7181ZM24.9987 45.8327C19.4084 41.0757 15.2331 36.6573 12.4727 32.5775C9.71224 28.4976 8.33203 24.7216 8.33203 21.2493C8.33203 16.041 10.0074 11.8917 13.3581 8.80143C16.7088 5.71115 20.589 4.16602 24.9987 4.16602C29.4084 4.16602 33.2886 5.71115 36.6393 8.80143C39.99 11.8917 41.6654 16.041 41.6654 21.2493C41.6654 24.7216 40.2852 28.4976 37.5247 32.5775C34.7643 36.6573 30.589 41.0757 24.9987 45.8327Z" fill="white"/>
</svg>
