<svg width="46" height="40" viewBox="0 0 46 40" fill="none" xmlns="http://www.w3.org/2000/svg">
<g clip-path="url(#clip0_243_135)">
<path d="M0 15.6609C0.336838 14.3018 1.28791 13.6611 2.56501 13.242C15.7485 8.91084 28.926 4.56132 42.0975 0.193476C43.9664 -0.42475 45.6623 0.477356 45.9703 2.29509C46.0284 2.74024 46.0006 3.19242 45.8883 3.62707C43.2429 14.9552 40.5899 26.2804 37.9294 37.6025C37.3836 39.9339 35.0852 40.7405 33.2281 39.2247C30.4967 37.0017 27.7741 34.7664 25.0602 32.5188C24.8098 32.3124 24.6558 32.2845 24.3811 32.4936C22.0052 34.296 19.6198 36.0858 17.2247 37.863C16.932 38.0801 16.5861 38.282 16.234 38.3568C15.5459 38.5037 14.9524 38.0765 14.7569 37.2907C14.4561 36.084 14.2066 34.8646 13.9464 33.648C13.2138 30.2481 12.4864 26.8481 11.7641 23.4482C11.7011 23.1481 11.5489 22.9976 11.2796 22.884C8.26154 21.5701 5.26062 20.2183 2.22998 18.9358C1.10418 18.46 0.287303 17.785 0 16.5621V15.6609ZM43.3476 2.63664L2.60464 16.1025C2.87483 16.2349 3.00092 16.307 3.13602 16.3665C6.20448 17.7129 9.27565 19.053 12.3387 20.4111C12.6638 20.5544 12.9043 20.5283 13.2087 20.3579C19.9257 16.6053 26.6465 12.8599 33.3713 9.12172C33.5771 9.00041 33.7955 8.90161 34.0224 8.82702C34.284 8.75321 34.5619 8.7616 34.8185 8.85106C35.0751 8.94052 35.2981 9.10674 35.4572 9.32719C35.6122 9.54116 35.6991 9.79695 35.7064 10.0611C35.7138 10.3253 35.6414 10.5856 35.4986 10.8079C35.3552 11.0183 35.1931 11.2153 35.014 11.3964C30.5343 16.097 26.0539 20.7965 21.5729 25.4948C21.4604 25.6129 21.3505 25.7336 21.2127 25.8778L35.2023 37.3547C37.924 25.7544 40.6232 14.2487 43.3476 2.63664ZM16.2033 31.2806L16.2934 31.2688C16.3213 31.1868 16.352 31.1048 16.3754 31.0219C16.8536 29.3511 17.3093 27.673 17.8236 26.0139C17.9637 25.5605 18.202 25.1435 18.5216 24.7928C21.2145 21.9333 23.9335 19.099 26.6444 16.2557C26.7552 16.1394 26.8588 16.015 26.9651 15.8952L26.9002 15.8276L14.3814 22.7993C14.9983 25.6642 15.599 28.4724 16.2033 31.2806ZM19.9518 28.3507C19.4591 30.0765 18.98 31.7537 18.4666 33.5552L22.5636 30.4857L19.9518 28.3507Z" fill="white"/>
</g>
<defs>
<clipPath id="clip0_243_135">
<rect width="46" height="40" fill="white"/>
</clipPath>
</defs>
</svg>
