<svg width="71" height="40" viewBox="0 0 71 40" fill="none" xmlns="http://www.w3.org/2000/svg">
<g clip-path="url(#clip0_243_137)">
<path d="M0 3.85278V2.89326C0.597984 1.89809 1.59279 1.83915 2.59035 1.83092C5.54995 1.80488 8.51507 1.79802 11.4705 1.78295C13.5676 1.77335 14.3296 2.28875 15.1604 4.17766C16.9998 8.35846 19.0294 12.4447 21.4833 16.3075C22.2591 17.5288 23.185 18.6377 24.4884 19.3574C25.4887 19.9057 26.3154 19.6562 26.8046 18.6528C27.0126 18.2265 27.2179 17.7659 27.2703 17.304C27.488 15.2876 27.7842 13.2671 27.7897 11.248C27.7897 9.46603 27.5073 7.66348 27.2469 5.88561C27.0361 4.43947 26.095 3.54711 24.6978 3.1304C24.4581 3.05775 24.2115 3.00292 23.9676 2.9426C23.3131 2.7836 23.2484 2.62733 23.6838 2.09959C24.3121 1.34019 25.085 0.745284 26.0716 0.59176C27.4247 0.357595 28.7893 0.194251 30.1596 0.1024C32.9332 -0.0552368 35.7096 -0.0648318 38.4611 0.421786C40.2716 0.742543 40.9536 1.41421 41.2816 3.19894C41.3258 3.44637 41.3461 3.69745 41.3422 3.94874C41.3229 5.66081 41.2885 7.37563 41.2692 9.08496C41.2402 11.481 41.1603 13.8826 41.2292 16.2732C41.2727 17.1332 41.508 17.9727 41.9181 18.731C42.4238 19.6905 43.369 19.7864 44.1626 19.0476C45.0458 18.2252 45.9401 17.3808 46.6565 16.4185C49.5362 12.5502 51.8097 8.33927 53.5926 3.86375C53.7371 3.50429 53.9075 3.15567 54.1024 2.82061C54.2487 2.54677 54.4688 2.31889 54.7379 2.16248C55.0071 2.00608 55.3147 1.92734 55.6263 1.9351C59.7337 1.89124 63.841 1.81447 67.9484 1.8131C68.9886 1.8131 70.0882 1.93921 70.5291 3.17426V4.13379C70.0854 5.17419 69.7134 6.25298 69.1815 7.24815C67.4207 10.538 65.048 13.4261 62.8159 16.402C61.6654 17.9332 60.5204 19.4767 59.4953 21.0914C58.7099 22.3251 58.9083 23.5108 59.8687 24.617C60.3316 25.1516 60.8332 25.6519 61.3375 26.1522C63.2279 28.0425 65.1954 29.8533 66.9977 31.834C68.5491 33.5392 70.1667 35.2719 70.5291 37.7118V37.8489C70.31 39.0702 69.4543 39.5843 68.3245 39.7474C67.7103 39.8247 67.0918 39.8636 66.4727 39.8639C63.7418 39.9151 61.0114 39.9571 58.2814 39.99C57.7303 39.9969 57.1791 40.038 56.6404 39.953C54.7114 39.6501 53.0993 38.7056 51.7642 37.3294C50.2665 35.7873 48.8625 34.1547 47.3689 32.6085C46.7801 32.0007 46.1232 31.4621 45.411 31.0033C44.4906 30.4084 43.7204 30.477 43.0163 31.2939C42.4803 31.9176 41.9581 32.6647 41.7638 33.4405C41.4386 34.7332 41.3505 36.0888 41.2196 37.4226C41.0818 38.8852 40.448 39.6761 38.9654 39.7707C37.2514 39.879 35.5208 39.8762 33.8068 39.8378C32.6843 39.8321 31.5648 39.7224 30.4627 39.5102C24.6097 38.2642 19.8396 35.1238 15.9954 30.699C11.3589 25.3627 7.61259 19.3971 4.42977 13.0944C2.89347 10.0445 1.47291 6.93561 0 3.85278Z" fill="white"/>
</g>
<defs>
<clipPath id="clip0_243_137">
<rect width="70.5263" height="40" fill="white"/>
</clipPath>
</defs>
</svg>
